<svg width="16" height="23" viewBox="0 0 16 23" fill="none" xmlns="http://www.w3.org/2000/svg">
<path fill-rule="evenodd" clip-rule="evenodd" d="M7.41976 0.213667C7.04363 0.244652 6.75963 0.282303 6.44706 0.342653C6.26015 0.378742 5.88558 0.466969 5.80961 0.492792C5.78966 0.499573 5.74397 0.513338 5.70807 0.523358C5.49367 0.583245 5.05507 0.7395 4.86065 0.825269C4.82808 0.839627 4.7786 0.860433 4.75068 0.871508C4.62117 0.922851 4.0845 1.19813 3.90193 1.30687C3.30222 1.66407 2.83212 2.0302 2.32808 2.53258C1.82406 3.03497 1.45674 3.50355 1.09837 4.1013C0.989273 4.28328 0.713095 4.8182 0.661585 4.94729C0.650473 4.97512 0.629599 5.02444 0.615195 5.0569C0.529146 5.25069 0.372381 5.68786 0.312297 5.90156C0.302245 5.93735 0.288435 5.98289 0.281632 6.00278C0.226263 6.16458 0.111855 6.70441 0.0657843 7.0213C0.00657122 7.4285 0 7.54486 0 8.18603C0 8.8272 0.00657122 8.94357 0.0657843 9.35077C0.111855 9.66766 0.226263 10.2075 0.281632 10.3693C0.288435 10.3892 0.302245 10.4347 0.312297 10.4705C0.372381 10.6842 0.529146 11.1214 0.615195 11.3152C0.629599 11.3476 0.650473 11.3969 0.661585 11.4248C0.672696 11.4526 0.748185 11.6088 0.829345 11.7718C1.04728 12.2095 1.28087 12.5882 1.58294 12.9935C1.93899 13.4713 2.2812 14.0673 2.55424 14.6852C2.56477 14.7091 2.59349 14.7806 2.61805 14.8443C2.64261 14.9079 2.66832 14.9729 2.67518 14.9888C2.73482 15.1271 2.83853 15.44 2.90995 15.6973C2.91657 15.7212 2.93208 15.7765 2.94439 15.8202C3.04628 16.1818 3.15712 16.8381 3.19104 17.2805C3.20804 17.5022 3.29284 17.804 3.39204 17.9957C3.50771 18.2193 3.72197 18.4615 3.94035 18.6154C4.06245 18.7015 4.30503 18.817 4.44606 18.8562C4.71555 18.9312 4.59332 18.9287 8 18.9287C11.4067 18.9287 11.2845 18.9312 11.5539 18.8562C11.695 18.817 11.9376 18.7015 12.0596 18.6154C12.278 18.4615 12.4923 18.2193 12.608 17.9957C12.7072 17.804 12.792 17.5022 12.809 17.2805C12.8429 16.8381 12.9537 16.1818 13.0556 15.8202C13.0679 15.7765 13.0834 15.7212 13.09 15.6973C13.1615 15.44 13.2652 15.1271 13.3248 14.9888C13.3317 14.9729 13.3574 14.9079 13.3819 14.8443C13.4065 14.7806 13.4352 14.7091 13.4458 14.6852C13.7162 14.0731 14.0469 13.4955 14.3899 13.0356C14.5517 12.8187 14.7546 12.5154 14.9015 12.2706C15.0106 12.089 15.2867 11.5544 15.3384 11.4248C15.3495 11.3969 15.3704 11.3476 15.3848 11.3152C15.4709 11.1214 15.6276 10.6842 15.6877 10.4705C15.6978 10.4347 15.7116 10.3892 15.7184 10.3693C15.7737 10.2075 15.8881 9.66766 15.9342 9.35077C15.9934 8.94357 16 8.8272 16 8.18603C16 7.54486 15.9934 7.4285 15.9342 7.0213C15.8881 6.70441 15.7737 6.16458 15.7184 6.00278C15.7116 5.98289 15.6978 5.93735 15.6877 5.90156C15.6276 5.68786 15.4709 5.25069 15.3848 5.0569C15.3704 5.02444 15.3495 4.97512 15.3384 4.94729C15.2869 4.8182 15.0107 4.28328 14.9016 4.1013C14.5433 3.50355 14.1759 3.03497 13.6719 2.53258C13.1679 2.0302 12.6978 1.66407 12.0981 1.30687C11.9155 1.19813 11.3788 0.922851 11.2493 0.871508C11.2214 0.860433 11.1719 0.839627 11.1394 0.825269C10.9449 0.7395 10.5063 0.583245 10.2919 0.523358C10.256 0.513338 10.2103 0.499573 10.1904 0.492792C10.042 0.442345 9.50429 0.327153 9.21504 0.28385C8.81452 0.22389 8.69179 0.216096 8.08704 0.212192C7.75594 0.210052 7.45567 0.210718 7.41976 0.213667ZM7.68087 1.73158C7.1098 1.78081 6.75402 1.83861 6.34633 1.94835C6.14081 2.00367 5.83436 2.10131 5.75665 2.13622C5.73151 2.14753 5.70367 2.15677 5.6948 2.15677C5.68592 2.15677 5.66732 2.16274 5.65347 2.17004C5.62647 2.18428 5.57128 2.20849 5.37001 2.29436C5.05008 2.43085 4.54571 2.72025 4.2341 2.94614C3.62483 3.38778 3.18607 3.82511 2.74299 4.43239C2.51637 4.74299 2.22602 5.24572 2.08908 5.56461C2.00293 5.76522 1.97865 5.82023 1.96436 5.84714C1.95703 5.86095 1.95104 5.87949 1.95104 5.88833C1.95104 5.89718 1.94177 5.92493 1.93043 5.94999C1.86145 6.10248 1.71316 6.61488 1.65363 6.90644C1.5612 7.35907 1.52409 7.72563 1.52409 8.18603C1.52409 8.64644 1.5612 9.013 1.65363 9.46563C1.71316 9.75719 1.86145 10.2696 1.93043 10.4221C1.94177 10.4471 1.95104 10.4749 1.95104 10.4837C1.95104 10.4926 1.95703 10.5111 1.96436 10.5249C1.97865 10.5518 2.00293 10.6068 2.08908 10.8075C2.19538 11.055 2.444 11.5041 2.6193 11.7652C2.6569 11.8212 2.74572 11.9448 2.8167 12.0399C2.97333 12.2498 3.2866 12.7252 3.43072 12.9719C3.54459 13.1667 3.78208 13.6258 3.87206 13.8249C3.92814 13.9491 4.00464 14.1299 4.04183 14.2261C4.04874 14.244 4.06005 14.2733 4.06696 14.2912C4.091 14.3534 4.10855 14.3964 4.13216 14.4507C4.14525 14.4808 4.15598 14.5134 4.15602 14.523C4.15608 14.5327 4.16505 14.5577 4.17597 14.5785C4.1957 14.6162 4.2783 14.8621 4.3502 15.0973C4.50705 15.6102 4.64203 16.3073 4.71337 16.973C4.74156 17.236 4.77501 17.2992 4.932 17.3859L4.99003 17.4179L6.16863 17.4223L7.34724 17.4267V14.3028C7.34724 11.9818 7.343 11.179 7.33077 11.179C7.28023 11.179 6.92552 11.261 6.78876 11.3043C6.51209 11.392 6.3001 11.4935 6.05621 11.6551C5.90335 11.7565 5.80065 11.7854 5.59144 11.7859C5.34864 11.7865 5.20026 11.7283 5.04003 11.5696C4.90431 11.4351 4.85329 11.313 4.85257 11.1207C4.85219 11.0176 4.8648 10.9659 4.95137 10.7163C5.02055 10.5168 5.06259 10.3206 5.09154 10.0623C5.11868 9.82018 5.11865 9.67472 5.09142 9.43172C5.04918 9.0548 4.97169 8.77113 4.83156 8.48041C4.7406 8.29168 4.66929 8.18335 4.53054 8.02303C4.47495 7.9588 4.41198 7.87324 4.39061 7.83288C4.35563 7.76679 4.35177 7.74441 4.35177 7.60769C4.35177 7.47127 4.35581 7.44764 4.39173 7.37477C4.44173 7.27327 4.56464 7.15577 4.67448 7.10447C4.7517 7.06839 4.77202 7.06549 4.94651 7.06549C5.12361 7.06549 5.14058 7.06802 5.22537 7.10706C5.29397 7.13863 5.34636 7.18029 5.44357 7.28056C5.87403 7.72453 6.15402 8.32977 6.27512 9.07799C6.30967 9.29152 6.32831 9.92113 6.30684 10.1497C6.29572 10.2682 6.29691 10.2836 6.31663 10.2779C6.32898 10.2743 6.3962 10.2546 6.46602 10.234C6.60115 10.1943 7.01012 10.1106 7.21995 10.0797L7.34651 10.0611L7.3505 7.89098L7.35449 5.72083L7.38832 5.6274C7.43536 5.49749 7.47867 5.42871 7.57341 5.33353C7.71613 5.19013 7.90136 5.12914 8.09638 5.16135C8.22796 5.18308 8.32962 5.23609 8.42659 5.33353C8.52133 5.42871 8.56464 5.49749 8.61168 5.6274L8.64551 5.72083L8.6495 7.8905L8.65349 10.0602L8.78731 10.0791C8.99312 10.1082 9.40714 10.1925 9.54849 10.234C9.61831 10.2546 9.68553 10.2743 9.69787 10.2779C9.7176 10.2836 9.71879 10.2682 9.70766 10.1497C9.6862 9.92113 9.70484 9.29152 9.73939 9.07799C9.86048 8.32977 10.1405 7.72453 10.5709 7.28056C10.6681 7.18029 10.7205 7.13863 10.7891 7.10706C10.8739 7.06802 10.8909 7.06549 11.068 7.06549C11.2425 7.06549 11.2628 7.06839 11.34 7.10447C11.4499 7.15577 11.5728 7.27327 11.6228 7.37477C11.6587 7.44764 11.6627 7.47127 11.6627 7.60769C11.6627 7.74441 11.6589 7.76679 11.6239 7.83288C11.6025 7.87324 11.5396 7.9588 11.484 8.02303C11.3452 8.18335 11.2739 8.29168 11.1829 8.48041C11.0428 8.77113 10.9653 9.0548 10.9231 9.43172C10.8959 9.67472 10.8958 9.82018 10.923 10.0623C10.9519 10.3206 10.994 10.5168 11.0631 10.7163C11.1497 10.9659 11.1623 11.0176 11.1619 11.1207C11.1612 11.313 11.1102 11.4351 10.9745 11.5696C10.8142 11.7283 10.6659 11.7865 10.4231 11.7859C10.2139 11.7854 10.1112 11.7565 9.9583 11.6551C9.71441 11.4935 9.50242 11.392 9.22575 11.3043C9.07963 11.2581 8.73316 11.179 8.67648 11.179C8.65461 11.179 8.65277 11.4209 8.65277 14.3028V17.4267L9.83137 17.4223L11.01 17.4179L11.068 17.3859C11.1505 17.3403 11.1827 17.3107 11.2263 17.2405C11.2587 17.1881 11.2679 17.1473 11.2866 16.973C11.358 16.3073 11.4929 15.6102 11.6498 15.0973C11.7217 14.8621 11.8043 14.6162 11.824 14.5785C11.835 14.5577 11.8439 14.5327 11.844 14.523C11.844 14.5134 11.8548 14.4808 11.8678 14.4507C11.8809 14.4207 11.8972 14.3814 11.9041 14.3635C11.9341 14.2853 11.9427 14.2636 11.9582 14.2261C11.9672 14.2043 11.9804 14.1717 11.9876 14.1539C12.1198 13.8215 12.3697 13.3136 12.5691 12.9719C12.7083 12.7332 12.9832 12.3188 13.2177 11.9938C13.4951 11.6095 13.7645 11.1485 13.9109 10.8075C13.9971 10.6068 14.0214 10.5518 14.0356 10.5249C14.043 10.5111 14.049 10.4926 14.049 10.4837C14.049 10.4749 14.0582 10.4471 14.0696 10.4221C14.1385 10.2696 14.2868 9.75719 14.3464 9.46563C14.4388 9.013 14.4759 8.64644 14.4759 8.18603C14.4759 7.72563 14.4388 7.35907 14.3464 6.90644C14.2868 6.61488 14.1385 6.10248 14.0696 5.94999C14.0582 5.92493 14.049 5.89718 14.049 5.88833C14.049 5.87949 14.043 5.86095 14.0356 5.84714C14.0214 5.82023 13.9971 5.76522 13.9109 5.56461C13.774 5.24572 13.4836 4.74299 13.257 4.43239C12.8139 3.82511 12.3752 3.38778 11.7659 2.94614C11.4543 2.72025 10.9499 2.43085 10.63 2.29436C10.4287 2.20849 10.3735 2.18428 10.3465 2.17004C10.3327 2.16274 10.3141 2.15677 10.3052 2.15677C10.2963 2.15677 10.2685 2.14753 10.2434 2.13622C10.1656 2.10131 9.85919 2.00367 9.65367 1.94835C9.3258 1.86009 9.02789 1.80542 8.61676 1.75806C8.43624 1.73725 7.81792 1.71977 7.68087 1.73158ZM4.22847 19.3646C3.86105 19.4248 3.61922 19.7195 3.61922 20.1072C3.61922 20.4568 3.82636 20.7466 4.13739 20.832C4.23225 20.8581 4.36852 20.8591 8 20.8591C11.6315 20.8591 11.7677 20.8581 11.8626 20.832C12.1736 20.7466 12.3808 20.4568 12.3808 20.1072C12.3808 19.7123 12.1387 19.4236 11.757 19.3633C11.6369 19.3443 4.34468 19.3455 4.22847 19.3646ZM5.63554 21.2938C5.3542 21.3545 5.12712 21.5815 5.06911 21.8601C5.044 21.9806 5.05848 22.198 5.09855 22.3026C5.19781 22.5617 5.41528 22.735 5.69107 22.7748C5.7499 22.7832 6.6551 22.7887 8 22.7887C9.3449 22.7887 10.2501 22.7832 10.3089 22.7748C10.5847 22.735 10.8022 22.5617 10.9015 22.3026C10.9415 22.198 10.956 21.9806 10.9309 21.8601C10.8722 21.5781 10.6449 21.3535 10.3572 21.293C10.2089 21.2618 5.78018 21.2626 5.63554 21.2938Z" fill="#FCF6E5"/>
</svg>
